<svg width="1408" height="286" viewBox="0 0 1408 286" fill="none" xmlns="http://www.w3.org/2000/svg">
<g clip-path="url(#clip0_2105_2)">
<path d="M51.1347 211.927C41.2082 207.692 32.3265 201.764 24.4898 194.141C16.849 186.78 10.9061 178.05 6.53061 167.952C2.1551 157.854 0 147.3 0 136.16C0 125.019 2.1551 114.465 6.53061 104.367C10.9061 94.2693 16.849 85.5395 24.4898 78.1126C32.3265 70.4903 41.2082 64.5618 51.1347 60.3923C61.0612 56.1577 71.6408 54.0078 83.0041 54.0078C94.3673 54.0078 105.339 56.1577 115.461 60.5226C125.584 64.8875 134.596 71.0766 142.367 79.0898L128.98 86.9076C122.906 81.0443 115.918 76.6142 108.082 73.5522C100.245 70.4903 91.8857 68.9919 82.9388 68.9919C73.9918 68.9919 65.1102 70.7509 56.9469 74.2037C48.7837 77.6566 41.5347 82.4775 35.2 88.5363C28.8653 94.5951 23.902 101.761 20.3755 110.035C16.849 118.309 14.9551 126.974 14.9551 136.094C14.9551 145.215 16.7837 153.88 20.3755 162.154C23.9673 170.427 28.9306 177.594 35.2 183.652C41.5347 189.711 48.7837 194.532 56.9469 197.985C65.1102 201.438 73.7306 203.197 82.9388 203.197C92.1469 203.197 100.245 201.698 108.082 198.637C115.918 195.575 122.906 191.144 128.98 185.281L142.367 193.099C134.531 201.112 125.584 207.301 115.461 211.666C105.339 216.031 94.498 218.181 83.0041 218.181C71.5102 218.181 61.0612 216.031 51.1347 211.862V211.927Z" fill="#1D1D1B"/>
<path d="M539.43 216.617V0H554.45V216.617H539.43Z" fill="#1D1D1B"/>
<path d="M634.904 211.927C624.978 207.692 616.096 201.764 608.259 194.141C600.619 186.78 594.676 178.05 590.3 167.952C585.925 157.854 583.77 147.3 583.77 136.16C583.77 125.019 585.925 114.465 590.3 104.367C594.676 94.2693 600.619 85.5395 608.259 78.1126C616.096 70.4903 624.978 64.5618 634.904 60.3923C644.831 56.1577 655.41 54.0078 666.774 54.0078C678.137 54.0078 689.108 56.1577 699.231 60.5226C709.353 64.8875 718.365 71.0766 726.137 79.0898L712.749 86.9076C706.676 81.0443 699.688 76.6142 691.851 73.5522C684.014 70.4903 675.655 68.9919 666.708 68.9919C657.761 68.9919 648.88 70.7509 640.716 74.2037C632.553 77.6566 625.304 82.4775 618.97 88.5363C612.635 94.5951 607.672 101.761 604.145 110.035C600.619 118.309 598.725 126.974 598.725 136.094C598.725 145.215 600.553 153.88 604.145 162.154C607.737 170.427 612.7 177.594 618.97 183.652C625.304 189.711 632.553 194.532 640.716 197.985C648.88 201.438 657.5 203.197 666.708 203.197C675.916 203.197 684.014 201.698 691.851 198.637C699.688 195.575 706.676 191.144 712.749 185.281L726.137 193.099C718.3 201.112 709.353 207.301 699.231 211.666C689.108 216.031 678.267 218.181 666.774 218.181C655.28 218.181 644.831 216.031 634.904 211.862V211.927Z" fill="#1D1D1B"/>
<path d="M892.407 216.617V179.156C884.113 192.642 874.382 202.479 863.149 208.799C851.917 215.118 839.117 218.245 824.749 218.245C813.451 218.245 802.807 216.161 792.88 212.056C782.954 207.952 774.203 202.089 766.627 194.466C758.986 187.104 753.043 178.309 748.798 168.212C744.554 158.114 742.398 147.56 742.398 136.419C742.398 125.279 744.554 114.725 748.798 104.627C753.043 94.5291 758.986 85.6689 766.627 78.0466C774.268 70.4243 783.019 64.561 792.88 60.4566C802.807 56.3523 813.386 54.2676 824.749 54.2676C840.423 54.2676 854.007 57.3295 865.435 63.3883C876.864 69.4471 885.811 78.5027 892.341 90.4248V58.1765H907.362V216.486H892.341L892.407 216.617ZM798.496 74.268C790.137 77.7209 782.888 82.5418 776.749 88.6006C770.676 94.6594 765.843 101.891 762.382 110.23C758.921 118.569 757.158 127.299 757.158 136.484C757.158 145.67 758.921 154.27 762.382 162.544C765.843 170.817 770.676 177.984 776.749 184.043C782.823 190.101 790.072 194.922 798.496 198.375C806.856 201.828 815.607 203.587 824.749 203.587C833.892 203.587 842.252 201.828 850.545 198.375C858.839 194.922 866.023 190.101 872.096 184.043C878.17 177.984 883.003 170.817 886.66 162.544C890.252 154.27 892.015 145.605 892.015 136.484C892.015 127.364 890.251 118.634 886.79 110.23C883.329 101.891 878.496 94.6594 872.423 88.6006C866.349 82.5418 859.166 77.7209 850.872 74.268C842.578 70.8152 833.892 69.0562 824.749 69.0562C815.607 69.0562 806.856 70.8152 798.496 74.268Z" fill="#1D1D1B"/>
<path d="M940.082 216.617V0H955.102V216.617H940.082Z" fill="#1D1D1B"/>
<path d="M987.754 216.617V0H1002.77V216.617H987.754Z" fill="#1D1D1B"/>
<path d="M1038.04 33.6825C1036.28 31.8584 1035.43 29.513 1035.43 26.7117C1035.43 23.9103 1036.28 21.565 1038.04 19.6757C1039.81 17.8515 1042.09 16.9395 1044.9 16.9395C1047.71 16.9395 1050.12 17.8515 1052.08 19.6757C1054.04 21.4998 1055.02 23.8451 1055.02 26.7117C1055.02 29.5782 1054.04 31.8584 1052.08 33.6825C1050.12 35.5067 1047.71 36.4839 1044.9 36.4839C1042.09 36.4839 1039.81 35.5718 1038.04 33.6825ZM1037.39 216.618V53.7481H1052.41V216.618H1037.39Z" fill="#1D1D1B"/>
<path d="M1201.96 216.618V117.267C1201.96 110.753 1200.72 104.564 1198.17 98.7002C1195.69 92.8369 1192.16 87.625 1187.59 83.0647C1183.02 78.5043 1177.66 74.9863 1171.46 72.5107C1165.26 70.0351 1158.86 68.7321 1152.32 68.7321C1143.64 68.7321 1135.48 70.882 1127.84 75.2469C1120.19 79.6118 1114.12 85.4752 1109.55 92.8369C1104.98 100.199 1102.69 108.342 1102.69 117.267V216.618H1087.67V58.3084H1102.69V80.4588C1108.77 70.882 1116.28 64.0414 1125.09 59.9371C1133.91 55.8328 1142.99 53.748 1152.32 53.748C1161.01 53.748 1169.37 55.3767 1177.34 58.6342C1185.3 61.8916 1192.29 66.4519 1198.43 72.3152C1204.31 78.1786 1208.95 85.0191 1212.28 92.8369C1215.67 100.655 1217.3 108.798 1217.3 117.267V216.618H1201.96Z" fill="#1D1D1B"/>
<path d="M1292.08 279.03C1281.63 274.339 1272.49 267.89 1264.65 259.681L1278.04 251.863C1284.12 258.183 1291.3 263.004 1299.46 266.326C1307.63 269.649 1316.38 271.408 1325.72 271.408C1335.05 271.408 1343.54 269.714 1351.84 266.326C1360.13 262.938 1367.32 258.248 1373.39 252.189C1379.46 246.326 1384.3 239.355 1387.76 231.211C1391.22 223.068 1392.98 214.533 1392.98 205.608V179.223C1376.46 203.784 1353.93 216.032 1325.39 216.032C1314.48 216.032 1304.03 213.817 1293.91 209.322C1283.79 204.892 1275.04 198.768 1267.66 190.885C1260.02 183.067 1254.07 174.142 1249.83 164.174C1245.58 154.206 1243.43 143.848 1243.43 133.229C1243.43 122.61 1245.58 111.99 1249.83 102.088C1254.07 92.1854 1260.02 83.7162 1267.66 76.5499C1275.04 69.3836 1283.79 63.7808 1293.78 59.7417C1303.77 55.7025 1314.35 53.748 1325.45 53.748C1340.47 53.748 1353.86 57.0055 1365.62 63.5203C1377.37 70.0351 1386.52 79.2861 1393.05 91.2082V57.9827H1408.07V205.543C1408.07 216.423 1405.91 226.716 1401.67 236.488C1397.42 246.261 1391.48 254.86 1383.84 262.222C1376.46 269.584 1367.64 275.447 1357.58 279.616C1347.46 283.851 1336.82 286.001 1325.72 286.001C1313.76 286.001 1302.53 283.656 1292.08 278.965V279.03ZM1299.4 73.8136C1291.04 77.2013 1283.79 81.892 1277.65 87.9508C1271.58 93.8141 1266.74 100.98 1263.09 109.45C1259.5 117.919 1257.73 126.584 1257.73 135.509C1257.73 144.434 1259.5 152.838 1262.96 160.786C1266.42 168.734 1271.32 175.836 1277.65 182.155C1283.72 188.214 1290.97 193.035 1299.4 196.487C1307.76 199.94 1316.44 201.699 1325.32 201.699C1334.21 201.699 1342.83 199.94 1350.99 196.487C1359.15 193.035 1366.4 188.214 1372.67 182.155C1378.74 176.096 1383.64 168.995 1387.23 160.982C1390.83 152.969 1392.65 144.499 1392.65 135.574C1392.65 126.649 1390.89 117.984 1387.23 109.515C1383.64 101.046 1378.81 93.8793 1372.67 88.0159C1366.6 81.9572 1359.41 77.2014 1351.12 73.8788C1342.83 70.4911 1334.27 68.7973 1325.32 68.7973C1316.38 68.7973 1307.76 70.4911 1299.4 73.8788V73.8136Z" fill="#1D1D1B"/>
<path d="M241.632 217.985C196.048 217.985 159.02 180.981 159.02 135.572C159.02 90.1643 196.113 53.1602 241.632 53.1602C287.15 53.1602 324.244 90.1643 324.244 135.572C324.244 180.981 287.15 217.985 241.632 217.985ZM241.632 66.9064C203.689 66.9064 172.864 97.7214 172.864 135.572C172.864 173.423 203.754 204.239 241.632 204.239C279.509 204.239 310.399 173.423 310.399 135.572C310.399 97.7214 279.509 66.9064 241.632 66.9064Z" fill="black"/>
<path d="M426.515 217.985C380.931 217.985 343.902 180.981 343.902 135.572C343.902 90.1643 380.996 53.1602 426.515 53.1602C472.033 53.1602 509.127 90.1643 509.127 135.572C509.127 180.981 472.033 217.985 426.515 217.985ZM426.515 66.9064C388.572 66.9064 357.747 97.7214 357.747 135.572C357.747 173.423 388.637 204.239 426.515 204.239C464.392 204.239 495.282 173.423 495.282 135.572C495.282 97.7214 464.392 66.9064 426.515 66.9064Z" fill="black"/>
</g>
<defs>
<clipPath id="clip0_2105_2">
<rect width="1408" height="286" fill="white"/>
</clipPath>
</defs>
</svg>
